<svg width="28" height="28" viewBox="0 0 28 28" fill="none" xmlns="http://www.w3.org/2000/svg">
<path fill-rule="evenodd" clip-rule="evenodd" d="M14.0001 0C12.9827 0 12.158 0.82474 12.158 1.84211V12.1576H1.84211C0.824739 12.1576 0 12.9823 0 13.9997C0 15.0171 0.82474 15.8418 1.84211 15.8418H12.158V26.1579C12.158 27.1753 12.9827 28 14.0001 28C15.0174 28 15.8422 27.1753 15.8422 26.1579V15.8418H26.1579C27.1753 15.8418 28 15.0171 28 13.9997C28 12.9823 27.1753 12.1576 26.1579 12.1576H15.8422V1.84211C15.8422 0.824739 15.0174 0 14.0001 0Z" fill="white" fill-opacity="0.3"/>
</svg>
