<svg width="20" height="20" viewBox="0 0 20 20" fill="none" xmlns="http://www.w3.org/2000/svg">
<path fill-rule="evenodd" clip-rule="evenodd" d="M1.06665 0.932861C0.407959 1.59155 0.407959 2.65991 1.06665 3.3186L7.7478 9.99976L1.06665 16.6804C0.407471 17.3396 0.407471 18.4075 1.06665 19.0667C1.72534 19.7253 2.7937 19.7253 3.45239 19.0667L10.1335 12.3855L16.8142 19.0662C17.4729 19.7249 18.5413 19.7249 19.2 19.0662C19.8591 18.4075 19.8591 17.3391 19.2 16.6804L12.5193 9.99976L19.2 3.31909C19.8586 2.6604 19.8586 1.59204 19.2 0.93335C18.5413 0.27417 17.4729 0.27417 16.8142 0.93335L10.1335 7.61401L3.45288 0.932861C2.7937 0.273682 1.72583 0.273682 1.06665 0.932861Z" fill="white" fill-opacity="0.3"/>
</svg>
