<svg width="32" height="32" viewBox="0 0 32 32" fill="none" xmlns="http://www.w3.org/2000/svg">
<path d="M0.904878 0.888257C0.152488 1.64335 0.0197134 2.35402 0.0197134 6.21829V10.66H1.79004H3.56037V7.10663V3.55328H15.9527H28.345V15.99V28.4268H15.9527H3.56037V24.8734V21.3201H1.79004H0.0197134V25.7618C0.0197134 32.4687 -1.21952 31.9801 15.9527 31.9801C29.9383 31.9801 30.071 31.9801 31.0005 31.003C31.8414 30.0702 31.8856 29.4928 31.8856 15.9456C31.8856 1.99868 31.8856 1.82101 30.912 0.888257C29.9825 0.0443347 29.4072 -8.22468e-05 15.8642 -8.22468e-05C2.3654 -8.22468e-05 1.74578 0.0443347 0.904878 0.888257Z" fill="#434343"/>
<path d="M13.5185 8.4391L12.235 9.77161L14.4037 11.9925L16.5724 14.2133H8.29606H0.0197754V15.99V17.7667H8.29606H16.5724L14.4037 19.9875L12.235 22.2084L13.6513 23.6297L15.0676 25.0955L19.5819 20.5205L24.1405 15.99L19.7147 11.5483C17.2805 9.10535 15.2003 7.10659 15.0676 7.10659C14.8905 7.10659 14.2267 7.72842 13.5185 8.4391Z" fill="#434343"/>
</svg>
