<svg width="153" height="45" viewBox="0 0 153 45" fill="none" xmlns="http://www.w3.org/2000/svg">
<path d="M35.066 29.275V20.006H35.768V20.916C36.3833 20.2313 37.2457 19.889 38.355 19.889C39.3777 19.889 40.2097 20.214 40.851 20.864C41.501 21.5053 41.826 22.3763 41.826 23.477C41.826 24.5863 41.5053 25.4703 40.864 26.129C40.2313 26.779 39.382 27.104 38.316 27.104C37.224 27.104 36.3747 26.7487 35.768 26.038V29.275H35.066ZM38.264 26.415C39.1133 26.415 39.7937 26.1507 40.305 25.622C40.825 25.0933 41.085 24.3783 41.085 23.477C41.085 22.5843 40.8207 21.878 40.292 21.358C39.772 20.838 39.1003 20.578 38.277 20.578C37.7917 20.578 37.3237 20.682 36.873 20.89C36.4223 21.098 36.054 21.4057 35.768 21.813V25.167C36.0367 25.583 36.3963 25.895 36.847 26.103C37.2977 26.311 37.77 26.415 38.264 26.415ZM48.8774 27.104C47.7854 27.104 46.8884 26.7703 46.1864 26.103C45.4844 25.427 45.1334 24.556 45.1334 23.49C45.1334 22.424 45.4844 21.5573 46.1864 20.89C46.897 20.2227 47.794 19.889 48.8774 19.889C49.9607 19.889 50.8534 20.2227 51.5554 20.89C52.2574 21.5573 52.6084 22.424 52.6084 23.49C52.6084 24.5647 52.2574 25.4357 51.5554 26.103C50.8534 26.7703 49.9607 27.104 48.8774 27.104ZM46.7194 25.609C47.2914 26.1463 48.0107 26.415 48.8774 26.415C49.744 26.415 50.459 26.1463 51.0224 25.609C51.5857 25.063 51.8674 24.3567 51.8674 23.49C51.8674 22.632 51.5814 21.9343 51.0094 21.397C50.446 20.851 49.7354 20.578 48.8774 20.578C48.0107 20.578 47.2914 20.851 46.7194 21.397C46.156 21.9343 45.8744 22.632 45.8744 23.49C45.8744 24.3567 46.156 25.063 46.7194 25.609ZM57.1837 18.784C57.071 18.9053 56.928 18.966 56.7547 18.966C56.5813 18.966 56.434 18.9053 56.3127 18.784C56.1913 18.6627 56.1307 18.5197 56.1307 18.355C56.1307 18.1817 56.1913 18.0387 56.3127 17.926C56.434 17.8047 56.5813 17.744 56.7547 17.744C56.928 17.744 57.071 17.8047 57.1837 17.926C57.305 18.0387 57.3657 18.1817 57.3657 18.355C57.3657 18.5197 57.305 18.6627 57.1837 18.784ZM56.3777 27V20.006H57.1057V27H56.3777ZM61.3138 27V20.006H62.0158V20.916C62.8305 20.2313 63.7145 19.889 64.6678 19.889C65.6038 19.889 66.3058 20.1273 66.7738 20.604C67.2418 21.0807 67.4758 21.865 67.4758 22.957V27H66.7738V23.009C66.7738 22.1337 66.5875 21.5097 66.2148 21.137C65.8421 20.7643 65.2918 20.578 64.5638 20.578C63.6798 20.578 62.8305 20.942 62.0158 21.67V27H61.3138ZM73.7427 27.117C72.9974 27.117 72.4817 26.935 72.1957 26.571C71.9184 26.207 71.7797 25.6177 71.7797 24.803V20.669H70.5447V20.006H71.7797V17.198H72.4817V20.006H75.0427V20.669H72.4817V24.738C72.4817 25.3533 72.5771 25.791 72.7677 26.051C72.9584 26.3023 73.3137 26.428 73.8337 26.428C74.2844 26.428 74.7091 26.3543 75.1077 26.207V26.922C74.7351 27.052 74.2801 27.117 73.7427 27.117ZM78.5627 29.275V20.006H79.2647V20.916C79.88 20.2313 80.7423 19.889 81.8517 19.889C82.8743 19.889 83.7063 20.214 84.3477 20.864C84.9977 21.5053 85.3227 22.3763 85.3227 23.477C85.3227 24.5863 85.002 25.4703 84.3607 26.129C83.728 26.779 82.8787 27.104 81.8127 27.104C80.7207 27.104 79.8713 26.7487 79.2647 26.038V29.275H78.5627ZM81.7607 26.415C82.61 26.415 83.2903 26.1507 83.8017 25.622C84.3217 25.0933 84.5817 24.3783 84.5817 23.477C84.5817 22.5843 84.3173 21.878 83.7887 21.358C83.2687 20.838 82.597 20.578 81.7737 20.578C81.2883 20.578 80.8203 20.682 80.3697 20.89C79.919 21.098 79.5507 21.4057 79.2647 21.813V25.167C79.5333 25.583 79.893 25.895 80.3437 26.103C80.7943 26.311 81.2667 26.415 81.7607 26.415ZM92.1401 27.104C91.0741 27.104 90.2204 26.7747 89.5791 26.116C88.9464 25.4573 88.6301 24.5733 88.6301 23.464C88.6301 22.3633 88.9507 21.4923 89.5921 20.851C90.2421 20.2097 91.0827 19.889 92.1141 19.889C93.2234 19.889 94.0814 20.2313 94.6881 20.916V20.006H95.3901V27H94.6881V26.051C94.0814 26.753 93.2321 27.104 92.1401 27.104ZM92.2051 26.415C92.6991 26.415 93.1671 26.311 93.6091 26.103C94.0597 25.895 94.4194 25.583 94.6881 25.167V21.813C94.4021 21.4057 94.0337 21.098 93.5831 20.89C93.1324 20.682 92.6644 20.578 92.1791 20.578C91.3557 20.578 90.6797 20.838 90.1511 21.358C89.6311 21.8693 89.3711 22.5713 89.3711 23.464C89.3711 24.3653 89.6267 25.0847 90.1381 25.622C90.6581 26.1507 91.3471 26.415 92.2051 26.415ZM101.857 27.117C101.111 27.117 100.596 26.935 100.31 26.571C100.032 26.207 99.8937 25.6177 99.8937 24.803V20.669H98.6587V20.006H99.8937V17.198H100.596V20.006H103.157V20.669H100.596V24.738C100.596 25.3533 100.691 25.791 100.882 26.051C101.072 26.3023 101.428 26.428 101.948 26.428C102.398 26.428 102.823 26.3543 103.222 26.207V26.922C102.849 27.052 102.394 27.117 101.857 27.117ZM106.664 27V17.198H107.366V20.916C108.18 20.2313 109.064 19.889 110.018 19.889C110.945 19.889 111.643 20.1317 112.111 20.617C112.587 21.0937 112.826 21.8737 112.826 22.957V27H112.124V23.009C112.124 22.1337 111.933 21.5097 111.552 21.137C111.179 20.7643 110.633 20.578 109.914 20.578C109.03 20.578 108.18 20.942 107.366 21.67V27H106.664Z" fill="#1B1B25"/>
<path fill-rule="evenodd" clip-rule="evenodd" d="M142.5 21C148.299 21 153 16.299 153 10.5C153 4.70101 148.299 0 142.5 0C137.038 0 132.551 4.17007 132.047 9.5H29.6583C26.981 9.5 24.6678 9.96209 23.004 11.233C21.2541 12.5697 20.5 14.578 20.5 17C20.5 19.422 21.2541 21.4303 23.004 22.767C24.6184 24.0002 26.8442 24.4719 29.4208 24.4988C29.4471 24.4996 29.4735 24.5 29.5 24.5C29.5132 24.5 29.5263 24.4999 29.5395 24.4997C29.579 24.4999 29.6186 24.5 29.6583 24.5V24.4951C30.9653 24.4134 32 23.3275 32 22C32 20.6193 30.8807 19.5 29.5 19.5C28.3656 19.5 27.4077 20.2555 27.102 21.2908C26.0876 21.0983 25.3479 20.7824 24.8251 20.383C24.0223 19.7698 23.5 18.778 23.5 17C23.5 15.222 24.0223 14.2303 24.8251 13.617C25.7141 12.9379 27.2301 12.5 29.6583 12.5H132.19C133.124 17.3424 137.385 21 142.5 21ZM118.837 24.2791C119.742 24.2791 120.558 23.8963 121.13 23.2838C122.737 23.3686 123.733 23.777 124.344 24.3516C125.014 24.9813 125.5 26.0748 125.5 28.0465C125.5 30.0182 125.014 31.1117 124.344 31.7414C123.656 32.389 122.478 32.8256 120.487 32.8256H20.8672C20.0654 27.8224 15.7291 24 10.5 24C4.70101 24 0 28.701 0 34.5C0 40.299 4.70101 45 10.5 45C15.85 45 20.2654 40.9988 20.9171 35.8256H120.487C122.839 35.8256 124.917 35.3203 126.399 33.9272C127.9 32.5162 128.5 30.4702 128.5 28.0465C128.5 25.6229 127.9 23.5768 126.399 22.1658C125.216 21.0532 123.652 20.5069 121.872 20.332C121.516 18.9894 120.292 18 118.837 18C117.103 18 115.698 19.4056 115.698 21.1395C115.698 22.8735 117.103 24.2791 118.837 24.2791ZM18 34.5C18 38.6421 14.6421 42 10.5 42C6.35786 42 3 38.6421 3 34.5C3 30.3579 6.35786 27 10.5 27C14.6421 27 18 30.3579 18 34.5Z" fill="url(#paint0_linear_301_2665)"/>
<defs>
<linearGradient id="paint0_linear_301_2665" x1="153" y1="22.5" x2="-5.10706e-07" y2="22.5" gradientUnits="userSpaceOnUse">
<stop stop-color="#B9C5FF"/>
<stop offset="0.526042" stop-color="#E694F7"/>
<stop offset="1" stop-color="#96EC8E"/>
</linearGradient>
</defs>
</svg>
