<svg width="26" height="25" viewBox="0 0 26 25" fill="none" xmlns="http://www.w3.org/2000/svg">
<path d="M3.25 1.4375C1.5625 3.375 0.375 5.9375 0.1875 8.1875L0 10H1.46875H2.90625V8.8125C2.90625 7.3125 4.09375 4.84375 5.53125 3.3125L6.65625 2.09375L5.96875 1.03125C5.5625 0.46875 5.09375 0 4.875 0C4.6875 0 3.9375 0.65625 3.25 1.4375Z" fill="#D84FF4"/>
<path d="M11.0938 0.375C10.875 0.59375 10.7188 1.15625 10.7188 1.625C10.7188 2.34375 10.5 2.59375 9.5625 2.96875C8 3.625 6.40625 5.15625 5.6875 6.71875C5.21875 7.75 5.09375 8.75 5.09375 12.6562V17.375L3.84375 18.5938C3.09375 19.3125 2.59375 20.0938 2.59375 20.5312V21.25H12.5938H22.5938V20.5312C22.5938 20.0938 22.0938 19.3125 21.3438 18.5938L20.0938 17.375V12.6562C20.0938 8.75 19.9688 7.75 19.5 6.71875C18.7812 5.15625 17.1875 3.625 15.6562 2.96875C14.6875 2.59375 14.4688 2.34375 14.4688 1.625C14.4688 1.15625 14.3125 0.59375 14.0938 0.375C13.5938 -0.125 11.5938 -0.125 11.0938 0.375Z" fill="#D84FF4"/>
<path d="M19.2188 1.03125L18.5312 2.09375L19.625 3.25C21.0938 4.8125 21.9688 6.5625 22.1875 8.46875L22.375 10H23.7812H25.1875L25 8.1875C24.9375 7.1875 24.4688 5.5625 24.0312 4.625C23.1562 2.78125 20.9062 0 20.3125 0C20.0938 0 19.625 0.46875 19.2188 1.03125Z" fill="#D84FF4"/>
<path d="M10.0938 23.125C10.0938 24.1562 11.1875 25 12.5938 25C14 25 15.0938 24.1562 15.0938 23.125C15.0938 22.5625 14.875 22.5 12.5938 22.5C10.3125 22.5 10.0938 22.5625 10.0938 23.125Z" fill="#D84FF4"/>
</svg>
