<svg width="38" height="38" viewBox="0 0 38 38" fill="none" xmlns="http://www.w3.org/2000/svg">
<path fill-rule="evenodd" clip-rule="evenodd" d="M0.963501 0.963501C-0.321167 2.24817 -0.321167 4.33118 0.963501 5.61584L13.9894 18.6417L0.963501 31.6676C-0.321167 32.9523 -0.321167 35.0348 0.963501 36.3195C2.24817 37.6041 4.33069 37.6041 5.61536 36.3195L18.6412 23.2936L31.6666 36.319C32.9513 37.6036 35.0338 37.6036 36.3185 36.319C37.6031 35.0343 37.6031 32.9518 36.3185 31.6671L23.2931 18.6417L36.319 5.61633C37.6036 4.33167 37.6036 2.24915 36.319 0.964478C35.0343 -0.32019 32.9513 -0.32019 31.6666 0.964478L18.6412 13.9899L5.61536 0.963501C4.33069 -0.321167 2.24817 -0.321167 0.963501 0.963501Z" fill="white" fill-opacity="0.3"/>
</svg>
